<?xml version="1.0" standalone="no"?>
<!DOCTYPE svg PUBLIC "-//W3C//DTD SVG 20010904//EN"
 "http://www.w3.org/TR/2001/REC-SVG-20010904/DTD/svg10.dtd">
<svg version="1.0" xmlns="http://www.w3.org/2000/svg"
 width="760.000000pt" height="760.000000pt" viewBox="0 0 760.000000 760.000000"
 preserveAspectRatio="xMidYMid meet">
<metadata>
Created by potrace 1.11, written by Peter Selinger 2001-2013
</metadata>
<g transform="translate(0.000000,760.000000) scale(0.100000,-0.100000)"
fill="#000000" stroke="none">
<path d="M4057 6394 c-1 -1 -63 -4 -137 -8 -74 -4 -146 -9 -160 -10 -14 -2
-56 -7 -93 -10 -37 -4 -78 -9 -90 -12 -25 -5 -71 -12 -124 -19 -21 -3 -58 -9
-83 -15 -25 -5 -56 -12 -70 -14 -69 -13 -91 -18 -222 -50 -170 -42 -472 -143
-613 -205 -22 -10 -62 -26 -88 -36 -26 -10 -50 -22 -53 -26 -3 -5 -12 -9 -21
-9 -8 0 -28 -9 -44 -21 -16 -11 -29 -18 -29 -15 0 12 -319 -161 -442 -240 -37
-24 -72 -44 -77 -44 -5 0 -11 -4 -13 -8 -1 -5 -25 -23 -53 -42 -61 -41 -259
-189 -300 -225 -16 -14 -55 -47 -85 -73 -117 -100 -361 -352 -423 -437 -4 -5
-23 -28 -42 -49 -19 -22 -35 -43 -35 -47 0 -4 -6 -14 -14 -21 -27 -27 -157
-229 -215 -332 -66 -120 -158 -323 -168 -369 -1 -10 -10 -31 -18 -48 -9 -16
-13 -29 -9 -29 4 0 2 -6 -4 -13 -6 -7 -13 -24 -16 -37 -5 -24 -14 -65 -20 -85
-1 -5 -8 -28 -14 -50 -6 -22 -13 -56 -16 -75 -2 -19 -7 -46 -10 -60 -3 -13 -7
-39 -8 -57 -1 -18 -5 -33 -8 -33 -5 0 -8 -77 -9 -240 0 -112 3 -156 13 -235 6
-46 9 -63 20 -120 22 -111 78 -278 134 -395 40 -85 135 -248 168 -290 191
-240 341 -376 594 -536 50 -31 295 -155 345 -174 11 -5 36 -15 55 -23 49 -21
220 -78 249 -84 14 -2 28 -6 33 -9 4 -3 16 -7 26 -9 9 -1 37 -8 62 -15 51 -14
76 -20 105 -24 11 -2 60 -11 110 -20 96 -18 141 -24 220 -32 28 -3 77 -8 110
-12 135 -15 609 -7 760 13 37 4 69 8 170 21 21 2 51 7 65 10 14 3 39 7 55 10
36 6 62 11 95 18 14 3 50 11 80 17 66 13 294 73 333 88 15 6 27 8 27 5 0 -4 7
0 17 7 9 8 17 12 17 10 4 -13 370 124 531 200 39 18 73 32 77 31 3 -1 12 5 18
13 7 8 18 15 25 15 16 0 77 31 86 43 3 5 8 7 10 6 5 -4 143 72 242 133 43 26
82 48 87 48 5 0 10 3 12 8 2 4 43 34 92 67 147 99 218 152 322 240 94 78 150
130 259 240 141 141 207 215 297 334 32 42 62 81 67 87 30 36 151 229 151 240
0 8 4 14 9 14 5 0 13 10 17 23 4 12 9 24 13 27 3 3 27 48 53 100 107 221 175
425 213 643 3 15 7 39 10 55 11 65 18 176 18 287 -1 176 -11 249 -58 455 -1 3
-10 32 -20 65 -11 33 -20 62 -20 65 -1 3 -7 19 -14 35 -7 17 -19 46 -26 65
-40 112 -183 346 -282 460 -22 26 -179 184 -209 210 -59 52 -132 110 -138 110
-4 0 -16 9 -28 20 -12 11 -28 20 -35 20 -7 0 -13 4 -13 9 0 10 -114 79 -250
152 -41 22 -178 82 -247 108 -43 16 -87 32 -98 36 -27 11 -25 10 -145 45 -89
26 -151 41 -265 66 -57 12 -174 30 -250 39 -27 4 -63 8 -80 11 -67 9 -459 24
-468 18z"/>
</g>
</svg>
